<svg width="25" height="25" viewBox="0 0 25 25" fill="none" xmlns="http://www.w3.org/2000/svg">
<path d="M16.8576 11.2812H13.6701L12.8784 13.6666H15.2638C16.1388 13.6666 16.8576 14.375 16.8576 15.2604C16.8576 16.1354 16.1492 16.8541 15.2638 16.8541H12.8784" stroke="white" stroke-width="1.575" stroke-linecap="round" stroke-linejoin="round"/>
<path d="M10.1702 16.8437V11.2812L8.60767 13.0208" stroke="white" stroke-width="1.575" stroke-linecap="round" stroke-linejoin="round"/>
<path d="M10.6703 4.65614L12.7328 2.08325" stroke="white" stroke-width="1.575" stroke-linecap="round" stroke-linejoin="round"/>
<path d="M5.34722 8.12469C4.19097 9.66636 3.47223 11.5726 3.47223 13.6559C3.47223 18.7705 7.61808 22.9164 12.7327 22.9164C17.8472 22.9164 21.9931 18.7705 21.9931 13.6559C21.9931 8.54136 17.8472 4.39551 12.7327 4.39551C12.0243 4.39551 11.3368 4.48931 10.6702 4.64556" stroke="white" stroke-width="1.575" stroke-linecap="round" stroke-linejoin="round"/>
</svg>
