<svg width="1280" height="742" viewBox="0 0 1280 742" fill="none" xmlns="http://www.w3.org/2000/svg">
<g opacity="0.1">
<path d="M417.333 449.5H866.667V899H417.333V449.5Z" fill="#B5B6FF"/>
<path d="M642.449 849.555C595.854 849.555 551.166 831.038 518.218 798.078C485.27 765.117 466.76 720.414 466.76 673.801C466.76 627.188 485.27 582.484 518.218 549.523C551.166 516.563 595.854 498.046 642.449 498.046L642.449 849.555Z" fill="#8F91FB"/>
<path d="M787.135 808.201C751.622 808.201 717.563 794.041 692.452 768.836C667.341 743.631 653.233 709.446 653.233 673.801C653.233 638.155 667.341 603.97 692.452 578.765C717.563 553.56 751.622 539.4 787.135 539.4L787.135 808.201Z" fill="#8F91FB"/>
<path d="M417.333 449.5V0H866.667V449.5H417.333Z" fill="#8F91FB"/>
<path d="M642 224.75L490.125 449.5H793.875L642 224.75Z" fill="#DCDCFF"/>
<path d="M642 224.75L490.125 0H793.875L642 224.75Z" fill="#DCDCFF"/>
<path d="M866.667 899V449.5H1316V899H866.667Z" fill="#8F91FB"/>
<path d="M1009.55 674.25C1059.19 674.25 1099.42 714.5 1099.42 764.15C1099.42 813.8 1059.19 854.05 1009.55 854.05C959.923 854.05 919.688 813.8 919.688 764.15C919.688 714.5 959.923 674.25 1009.55 674.25Z" fill="#B5B6FF"/>
<path d="M1181.2 494.45C1230.83 494.45 1271.07 534.7 1271.07 584.35C1271.07 634 1230.83 674.25 1181.2 674.25C1131.57 674.25 1091.33 634 1091.33 584.35C1091.33 534.7 1131.57 494.45 1181.2 494.45Z" fill="#B5B6FF"/>
<path d="M866.667 0V449.5H1316V0H866.667Z" fill="#DCDCFF"/>
<path d="M1186.45 65.627L932.269 319.903L995.815 383.471L1250 129.196L1186.45 65.627Z" fill="#6669FE"/>
<path d="M417.333 899H-32V449.5H417.333V899Z" fill="#6669FE"/>
<path d="M349.933 831.575H35.4V516.925H349.933V831.575Z" fill="#8F91FB"/>
<path d="M298.26 779.883H87.0733V568.617H298.26V779.883Z" fill="#6669FE"/>
<path d="M417.333 449.5H-32V0H417.333V449.5Z" fill="#B5B6FF"/>
</g>
</svg>
