<svg width="26" height="26" viewBox="0 0 26 26" fill="none" xmlns="http://www.w3.org/2000/svg">
<path d="M23.6398 17.6385V4.92065C23.6398 3.65624 22.5867 2.71847 21.308 2.82383H21.2436C18.987 3.0135 15.5593 4.14093 13.6466 5.32105L13.4639 5.43695C13.1523 5.62662 12.6365 5.62662 12.3249 5.43695L12.0563 5.2789C10.1436 4.10932 6.72659 2.99242 4.47007 2.8133C3.19138 2.70793 2.14908 3.65624 2.14908 4.91012V17.6385C2.14908 18.6501 2.98722 19.5984 4.01877 19.7248L4.33038 19.767C6.66212 20.0725 10.2618 21.2316 12.3249 22.3379L12.3679 22.359C12.658 22.5171 13.1201 22.5171 13.3995 22.359C15.4626 21.2421 19.073 20.0725 21.4155 19.767L21.7701 19.7248C22.8016 19.5984 23.6398 18.6501 23.6398 17.6385Z" stroke="white" stroke-width="1.5" stroke-linecap="round" stroke-linejoin="round"/>
<path d="M12.8944 5.78467V21.5898" stroke="white" stroke-width="1.5" stroke-linecap="round" stroke-linejoin="round"/>
<path d="M8.32764 8.94574H5.90994" stroke="white" stroke-width="1.5" stroke-linecap="round" stroke-linejoin="round"/>
<path d="M9.13355 12.1068H5.90994" stroke="white" stroke-width="1.5" stroke-linecap="round" stroke-linejoin="round"/>
</svg>
