<svg width="24" height="24" viewBox="0 0 24 24" fill="none" xmlns="http://www.w3.org/2000/svg">
<path d="M8.66669 12.1666H14.5" stroke="#4749B3" stroke-width="1.5" stroke-miterlimit="10" stroke-linecap="round" stroke-linejoin="round"/>
<path d="M8.66669 15.4999H12.3167" stroke="#4749B3" stroke-width="1.5" stroke-miterlimit="10" stroke-linecap="round" stroke-linejoin="round"/>
<path d="M10.3334 7.00002H13.6667C15.3334 7.00002 15.3334 6.16669 15.3334 5.33335C15.3334 3.66669 14.5 3.66669 13.6667 3.66669H10.3334C9.50002 3.66669 8.66669 3.66669 8.66669 5.33335C8.66669 7.00002 9.50002 7.00002 10.3334 7.00002Z" stroke="#4749B3" stroke-width="1.5" stroke-miterlimit="10" stroke-linecap="round" stroke-linejoin="round"/>
<path d="M15.3333 5.35004C18.1083 5.50004 19.5 6.52504 19.5 10.3334V15.3334C19.5 18.6667 18.6667 20.3334 14.5 20.3334H9.5C5.33333 20.3334 4.5 18.6667 4.5 15.3334V10.3334C4.5 6.53337 5.89167 5.50004 8.66667 5.35004" stroke="#4749B3" stroke-width="1.5" stroke-miterlimit="10" stroke-linecap="round" stroke-linejoin="round"/>
</svg>
