<svg width="25" height="25" viewBox="0 0 25 25" fill="none" xmlns="http://www.w3.org/2000/svg">
<path d="M16.858 11.2812H13.6705L12.8788 13.6666H15.2642C16.1392 13.6666 16.858 14.375 16.858 15.2604C16.858 16.1354 16.1496 16.8541 15.2642 16.8541H12.8788" stroke="white" stroke-width="1.575" stroke-linecap="round" stroke-linejoin="round"/>
<path d="M10.1705 16.8437V11.2812L8.60797 13.0208" stroke="white" stroke-width="1.575" stroke-linecap="round" stroke-linejoin="round"/>
<path d="M14.7955 4.65614L12.733 2.08325" stroke="white" stroke-width="1.575" stroke-linecap="round" stroke-linejoin="round"/>
<path d="M20.1181 8.12469C21.2744 9.66636 21.9931 11.5726 21.9931 13.6559C21.9931 18.7705 17.8472 22.9164 12.7327 22.9164C7.61808 22.9164 3.47223 18.7705 3.47223 13.6559C3.47223 8.54136 7.61808 4.39551 12.7327 4.39551C13.441 4.39551 14.1285 4.48931 14.7951 4.64556" stroke="white" stroke-width="1.575" stroke-linecap="round" stroke-linejoin="round"/>
</svg>
