<svg width="26" height="26" viewBox="0 0 26 26" fill="none" xmlns="http://www.w3.org/2000/svg">
<path d="M18.2671 22.1272H7.52172C3.22358 22.1272 2.14905 21.0735 2.14905 16.8588V8.4294C2.14905 4.21469 3.22358 3.16101 7.52172 3.16101H18.2671C22.5652 3.16101 23.6397 4.21469 23.6397 8.4294V16.8588C23.6397 21.0735 22.5652 22.1272 18.2671 22.1272Z" stroke="#E66DFF" stroke-width="1.5" stroke-linecap="round" stroke-linejoin="round"/>
<path d="M15.0435 8.42944H20.4161" stroke="#E66DFF" stroke-width="1.5" stroke-linecap="round" stroke-linejoin="round"/>
<path d="M16.118 12.6442H20.4162" stroke="#E66DFF" stroke-width="1.5" stroke-linecap="round" stroke-linejoin="round"/>
<path d="M18.2671 16.8588H20.4162" stroke="#E66DFF" stroke-width="1.5" stroke-linecap="round" stroke-linejoin="round"/>
<path d="M9.13351 11.896C10.2076 11.896 11.0784 11.0422 11.0784 9.98888C11.0784 8.93559 10.2076 8.08173 9.13351 8.08173C8.05936 8.08173 7.1886 8.93559 7.1886 9.98888C7.1886 11.0422 8.05936 11.896 9.13351 11.896Z" stroke="#E66DFF" stroke-width="1.5" stroke-linecap="round" stroke-linejoin="round"/>
<path d="M12.8944 17.2065C12.744 15.6787 11.5083 14.4775 9.9502 14.3405C9.41293 14.2879 8.86492 14.2879 8.3169 14.3405C6.75883 14.4881 5.52312 15.6787 5.37268 17.2065" stroke="#E66DFF" stroke-width="1.5" stroke-linecap="round" stroke-linejoin="round"/>
</svg>
