<svg width="10" height="5" viewBox="0 0 10 5" fill="none" xmlns="http://www.w3.org/2000/svg">
<path d="M4.74495 4.8233C4.36175 4.8233 3.97855 4.67183 3.68841 4.37449L0.119176 0.716692C0.0428206 0.637512 0 0.530678 0 0.419356C0 0.308034 0.0428206 0.2012 0.119176 0.12202C0.277931 -0.0406734 0.540697 -0.0406734 0.699451 0.12202L4.26869 3.77982C4.53145 4.0491 4.95845 4.0491 5.22122 3.77982L8.79045 0.12202C8.94921 -0.0406734 9.21197 -0.0406734 9.37073 0.12202C9.52948 0.284714 9.52948 0.553999 9.37073 0.716692L5.80149 4.37449C5.51135 4.67183 5.12815 4.8233 4.74495 4.8233Z" fill="#979797"/>
</svg>
